<?xml version="1.0" encoding="UTF-8"?>
<svg xmlns="http://www.w3.org/2000/svg" viewBox="0 0 5000 2000">
  <defs>
    <style>
      .uuid-f492b386-51fe-4593-b4bc-fe6b7b01dae8 {
        fill: #ffce00;
      }
    </style>
  </defs>
  <g id="uuid-d1f9bd93-85cd-42a5-a61f-f81ae1f06e31" data-name="‘ëîé_2">
    <rect width="5000" height="2000"/>
  </g>
  <g id="uuid-a0ed003b-b8d4-413b-93c0-d110b3b64daf" data-name="‘ëîé_1">
    <g>
      <path class="uuid-f492b386-51fe-4593-b4bc-fe6b7b01dae8" d="M4014.41,915.67c-1.77-7.12-7.14-12.73-14.71-13.11-6.39-.32-12.74,3.23-15.71,8.91-.06.12-.11.23-.14.35,0,.02-.02.04-.03.06-.06.13-.11.27-.16.4,0,.01-.02.02-.02.04-.32.74-.67,1.48-.98,2.24-7.65,17.17-13.46,35.05-20.06,52.63-7.13,18.98-14.17,37.99-21.19,57.01-7.05,19.11-14.09,38.22-21.18,57.31-6.63,17.84-13.06,35.79-20.22,53.43-5.86,14.43-12.06,28.96-19.87,42.46-1.52-7.23-2.69-14.52-3.46-21.87-.9-8.62-1.34-17.29-1.81-25.94-1.14-21.29-2.78-42.51-5.17-63.7-2.18-19.25-4.84-38.43-7.22-57.66-1.26-10.21-2.44-20.43-3.46-30.67-.76-7.58-1.31-15.12-3.1-22.54-1.53-6.35-3.69-12.65-6.87-18.37-2.85-5.13-6.8-10.16-12.19-12.77-5.86-2.83-12.26-2.17-18.07.44-3.98,1.78-7.13,6.04-9.52,9.55-2.57,3.77-4.66,7.83-7.02,11.72-11.6,19.12-20.94,39.7-29.65,60.27-8.86,20.95-17.04,42.18-24.55,63.64-3.72,10.64-6.99,21.45-10.74,32.07-3.16,8.93-6.03,17.95-9.03,26.92-2.59,7.75-5.31,15.47-8.69,22.91-3.6,7.92-7.93,15.47-12.87,22.63-1.73,2.51-3.81,4.96-6.25,6.88-1.44-3.13-2.55-6.47-3.66-9.71-1.39-4.05-2.65-8.14-3.82-12.26-2.61-9.17-4.79-18.47-6.77-27.79-4.44-20.89-7.88-41.98-11.25-63.06-3.33-20.8-6.5-41.63-10.37-62.34-1.68-9-3.36-18-4.94-27.02-1.56-8.84-2.98-17.72-4.86-26.5-1.88-8.77-4-17.96-9.06-25.52-2.47-3.69-5.65-6.9-9.52-9.1-3.37-1.91-7.62-2.51-11.43-1.88-6.81,1.12-11.4,6.88-14.38,12.68-3.33,6.5-5.29,13.57-7.61,20.46-3.81,11.29-7.89,22.48-11.61,33.8-4.14,12.61-8.08,25.28-11.76,38.04-5.44,18.85-10.66,37.75-15.68,56.72-5.22,19.7-10.33,39.43-15.72,59.09-4.62,16.84-9.3,33.71-15.09,50.2-.45,1.27-.91,2.54-1.38,3.81-5.14-19.91-9.48-40.05-13.62-60.18-5.52-26.84-14.31-52.85-20.35-79.57-2.95-13.05-4.2-26.39-6.3-39.6-2.06-12.93-4.62-25.82-8.52-38.34-1.95-6.25-4.24-12.4-6.91-18.38-2.04-4.57-3.84-9.25-6.23-13.66-3.7-6.84-9.67-13.84-17.82-15.08-8.9-1.36-15.68,6.8-20.07,13.4-7.24,10.89-12.03,23.46-16.34,35.74-5.06,14.4-9.25,29.1-13.13,43.85-3.23,12.28-6.17,24.63-9.23,36.96-.92,3.73-1.87,7.45-2.93,11.14-1.76,6.13-2.94,12.5-4.22,18.75-1.4,6.86-2.67,13.76-3.81,20.67-1.14,6.88-2.15,13.78-3.07,20.69-.81,6.08-1.13,12.21-1.57,18.33-.9,12.23-1.79,24.45-2.98,36.66-.29,3.03-.62,6.05-.96,9.08-3.21-8.28-6.5-16.56-10.58-24.42-5.11-9.84-9.91-19.85-14.47-29.96-8.34-18.51-15.87-37.38-24.19-55.9-4.68-10.43-9.55-20.79-14.82-30.93-4.81-9.25-10.53-17.98-16.73-26.36-5.62-7.59-11.61-14.88-17.35-22.37-2.71-3.53-5.35-7.11-7.85-10.8-2.6-3.84-4.86-7.82-7.08-11.88-1.07-1.96-2.25-3.88-3.2-5.9-.62-1.32-1.1-2.69-1.89-3.92-1.21-1.9-2.67-3.7-4.41-5.15-6.48-5.38-16.71-5.38-22.88.53-1.47,1.41-2.61,3.13-3.37,5.02-.99,2.45-.96,5.24-1.22,7.84-.62,6.16-1.23,12.32-1.82,18.48-1.17,12.24-2.26,24.48-3.27,36.74-1,12.25-1.91,24.52-2.72,36.79-.4,6.09-.77,12.17-1.12,18.26-.34,6.01-.8,12.04-.77,18.06.08,23.16.62,46.31,1.98,69.43,1.36,23.06,3.56,46.09,6.96,68.94,3.39,22.78,8.01,45.39,14.25,67.56,1.53,5.43,3.16,10.83,4.88,16.19.68,2.1,3.69,1.24,3.28-.9-3.87-20.21-6.29-40.67-7.67-61.2-1.39-20.58-1.76-41.23-1.57-61.85.19-20.61.94-41.22,1.83-61.81.87-20.29,2.38-40.47,4.76-60.65,2.34-19.82,5.16-39.59,7.45-59.41.13-1.14.26-2.29.38-3.43,5.47,6.93,11.16,13.69,16.45,20.77,6.49,8.68,11.93,18.03,17.14,27.52,9.04,16.48,16.25,33.75,23.36,51.12,3.74,9.14,7.54,18.24,11.62,27.23,4.3,9.47,9.12,18.72,13.59,28.12,7.86,16.53,15.23,33.27,22.01,50.27,1.67,4.19,3.11,8.21,5.95,11.79,2.57,3.25,5.91,5.89,9.81,7.33,3.8,1.41,8.08,1.37,11.86-.11,4.07-1.6,7.21-4.56,9.83-8.01,4.99-6.58,7.23-14.82,8.67-22.82,1.65-9.18,2.72-18.46,3.57-27.75,1.07-11.68,1.93-23.37,2.84-35.06.67-8.67,1.23-17.33,2.62-25.92,2.42-14.97,5.62-29.82,9-44.6,3.99-17.42,8.33-34.77,13.05-52.01,4.49-16.42,9.1-32.83,15.4-48.66.9-2.26,1.86-4.49,2.86-6.71,2.13,5.62,3.72,11.47,5.22,17.26,2.33,9.02,4.28,18.14,6.01,27.29,1.69,8.96,3.17,17.97,4.3,27.01.25,2.01.49,4.03.7,6.05.3,2.82,1.04,5.63,1.65,8.4,1.3,5.89,2.75,11.75,4.27,17.58,3.05,11.68,6.42,23.26,9.62,34.9,3.19,11.6,5.66,23.4,8.18,35.16,2.55,11.87,5.06,23.74,7.98,35.52,1.39,5.62,2.83,11.24,4.59,16.76,1.34,4.2,2.25,8.52,3.32,12.79,2.05,8.21,4.9,17.44,12.01,22.74,2.22,1.65,5.64,2.5,8.35,2.9,2.58.38,5.18.33,7.73-.28,10.75-2.61,17.16-13.78,21.36-23.12,5.2-11.57,8.45-23.89,11.86-36.07,1.58-5.65,3.44-11.19,5.05-16.83,3.36-11.81,6.74-23.62,10.09-35.44,6.7-23.6,12.98-47.31,19.6-70.93,6.54-23.36,13.71-46.54,21.55-69.49,1.21-3.54,2.46-7.06,3.71-10.59,1.56,8.35,2.98,16.73,4.63,25.06,2.2,11.14,4.21,22.31,6.15,33.5,3.87,22.28,7.42,44.61,11.33,66.88,3.84,21.88,7.79,43.83,13.48,65.32,1.38,5.23,2.92,10.42,4.73,15.51,1.51,4.26,3.04,8.56,4.8,12.72,2.84,6.7,6.78,13.3,12.82,17.57,6.14,4.34,14.83,5.32,21.79,2.33,5.94-2.55,11.33-6.25,16.08-10.61,10.37-9.5,17.75-21.94,23.68-34.56,6.4-13.62,11.29-27.89,15.94-42.18,2.18-6.71,4.31-13.44,6.54-20.14,2.32-6.96,4.91-13.83,7.36-20.75,6.26-17.7,12.65-35.36,19.82-52.72,7.23-17.53,15.33-34.68,24-51.54,1.85-3.59,3.84-7.11,5.84-10.62,1.71,7.36,2.7,14.85,3.42,22.38.91,9.54,1.65,19.09,2.75,28.61,1.81,15.61,4.3,31.12,6.42,46.68,1.13,8.33,2.18,16.66,2.74,25.05.67,9.98,1.21,19.97,1.8,29.96,1.19,20.02,2.63,40.05,5.83,59.87,1.2,7.46,2.12,14.95,5.32,21.87,2.22,4.81,5.54,9.22,10.04,12.12,8.52,5.49,19.08,3.42,26.95-2.22,5.17-3.71,9.36-8.6,12.73-13.96,2.26-3.59,4.14-7.41,6.06-11.19,2.13-4.19,4.21-8.41,6.23-12.66,8.11-17.05,15.36-34.49,22.16-52.1,6.79-17.59,13.14-35.35,19.47-53.11,6.36-17.83,12.72-35.67,19.52-53.34.26-.66.52-1.32.78-1.98-1.29,15.36-2.75,30.71-4.91,45.97-1.41,10.02-3.51,19.97-5.28,29.92-1.84,10.28-3.59,20.58-5,30.93-1.4,10.31-2.48,20.67-2.94,31.07-.42,9.46-.37,18.9-1.2,28.34-1.43,16.22-4.69,32.17-7.84,48.12-1.89,9.59-3.93,19.2-5.25,28.88-1.43,10.42-2.23,20.91-2.62,31.42-.07,1.97-.12,3.93-.17,5.9-5.13-.55-10.25-.71-15.42-.88-5.42-.19-10.85-.42-16.27-.69-10.39-.52-20.76-1.2-31.13-2.01-20.27-1.57-40.5-3.61-60.72-5.64-21.89-2.2-43.8-4.63-65.75-6.11-23.67-1.59-47.45-2.19-71.17-2.3-23.74-.11-47.48.41-71.19,1.5-23.72,1.08-47.36,3-71.03,4.84-23.54,1.84-47.18,1.26-70.76,2.12-11.87.43-23.63,1.53-35.44,2.74-11.71,1.2-23.44,2.24-35.18,3.21-23.56,1.94-47.15,3.58-70.71,5.55-11.83.99-23.65,2.06-35.45,3.31-11.13,1.17-22.21,2.64-33.31,3.99-4.55.55-9.11,1.07-13.63,1.8-1.98.32-1.36,3.24.45,3.34,10.24.57,20.49.79,30.74,1.23,10.51.46,21.02.99,31.53,1.55,20.83,1.11,41.65,2.33,62.48,3.27,20.92.94,41.86,1.61,62.81,1.62,10.42,0,20.86-.5,31.27-.13,10.39.36,20.78.94,31.17,1.38,10.39.44,20.79.74,31.18.57,10.46-.17,20.92-.8,31.35-1.51,20.73-1.41,41.46-2.79,62.21-3.95,20.91-1.17,41.85-1.89,62.8-2.08,20.85-.2,41.71.12,62.54,1.03,20.84.91,41.64,2.85,62.41,4.81,20.67,1.94,41.33,4,62.03,5.56,10.35.78,20.7,1.43,31.07,1.88,7.64.33,15.3.15,22.94.11,4.3-.02,8.64,0,12.87.69,5.65.92,10.98,2.87,16.5,4.28,6.83,1.74,14.26-1.34,18.02-7.25,2.36-3.71,2.6-8.19,2.74-12.47.17-5,.16-10.01.31-15.02.31-10.34.83-20.69,2.07-30.97.62-5.11,1.73-10.19,2.71-15.24.96-4.93,1.95-9.86,2.93-14.79,1.98-9.94,3.94-19.9,5.5-29.92.78-5.02,1.47-10.06,2.03-15.12.56-5.1.79-10.2,1.04-15.32.86-17.59,1.6-35.22,3.74-52.71,1-8.18,2.52-16.23,4.17-24.31,2.06-10.13,3.74-20.34,5.15-30.58,2.78-20.27,4.52-40.66,6.08-61.05.78-10.22,1.52-20.44,2.32-30.66.81-10.46,1.74-20.93,2.24-31.41.24-5.06.45-10.16.28-15.23-.13-3.94-.25-7.93-1.2-11.77Z"/>
      <path class="uuid-f492b386-51fe-4593-b4bc-fe6b7b01dae8" d="M3235.06,912.49c5.81-3.85,8.29-11.01,7.2-17.74-.59-3.64-2.34-7.16-5.04-9.69-3.21-3.01-7.44-4.4-11.79-4.52-7.54.18-14.06,4.52-16.3,11.85-1.96,6.38-.33,13.97,4.69,18.52,5.66,5.12,14.88,5.8,21.25,1.57Z"/>
      <path class="uuid-f492b386-51fe-4593-b4bc-fe6b7b01dae8" d="M3432.58,881.41c3.21,3.01,7.44,4.4,11.79,4.52,7.54-.18,14.06-4.52,16.3-11.85,1.96-6.38.33-13.97-4.69-18.52-5.66-5.12-14.88-5.8-21.25-1.57-5.81,3.85-8.29,11.01-7.2,17.74.59,3.64,2.34,7.16,5.04,9.69Z"/>
      <path class="uuid-f492b386-51fe-4593-b4bc-fe6b7b01dae8" d="M3611.5,873.09c3.21,3.01,7.44,4.4,11.79,4.52,7.54-.18,14.06-4.52,16.3-11.85,1.96-6.38.33-13.97-4.69-18.52-5.66-5.12-14.88-5.8-21.25-1.57-5.81,3.85-8.29,11.01-7.2,17.74.59,3.64,2.34,7.16,5.04,9.69Z"/>
      <path class="uuid-f492b386-51fe-4593-b4bc-fe6b7b01dae8" d="M3814.05,876.89c3.21,3.01,7.44,4.4,11.79,4.51,7.54-.18,14.06-4.52,16.3-11.85,1.96-6.38.33-13.97-4.69-18.52-5.66-5.12-14.88-5.8-21.25-1.57-5.81,3.85-8.29,11.01-7.2,17.74.59,3.64,2.34,7.16,5.04,9.69Z"/>
      <path class="uuid-f492b386-51fe-4593-b4bc-fe6b7b01dae8" d="M4024.33,860.51c-.59-3.64-2.34-7.16-5.04-9.69-3.21-3.01-7.44-4.4-11.79-4.52-7.54.18-14.06,4.52-16.3,11.85-1.96,6.38-.33,13.97,4.69,18.52,5.66,5.12,14.88,5.8,21.25,1.57,5.81-3.85,8.29-11.01,7.2-17.74Z"/>
    </g>
    <path class="uuid-f492b386-51fe-4593-b4bc-fe6b7b01dae8" d="M2972.89,1180.04c1.72-11.61,2.73-23.22,2.66-34.96-.07-12.11-.99-24.2-1.9-36.27-.79-10.37-1.91-20.66-3.91-30.88-1.24-6.33-2.75-12.61-4.49-18.82-.9-3.23-1.96-6.4-2.9-9.62-.91-3.11-1.42-6.39-1.96-9.58-1.07-6.31-1.82-12.67-2.81-19-.98-6.27-2.59-12.38-3.75-18.62-1.48-7.95-2.95-16.4-7.97-23-6.05-7.95-16.27-11.31-25.93-9-5.44,1.3-10.41,4.04-15.23,6.79-5.63,3.21-11.22,6.49-16.85,9.7-5.65,3.22-11.32,6.4-16.88,9.78-5.47,3.33-10.79,6.9-16.08,10.49-10.57,7.17-20.94,14.62-31.18,22.25-9.92,7.4-19.71,14.97-29.42,22.64-8.44,6.67-16.67,13.63-25.25,20.11-1.01.76-2.01,1.53-3.04,2.27-12.12-14.08-24.69-27.76-37.08-41.61-6.31-7.05-12.56-14.15-18.68-21.36-5.93-7-12.3-13.51-18.85-19.94-6.6-6.48-13.29-12.87-19.72-19.52-4.94-5.11-10.22-10.42-13.78-16.64-.74-1.29-1.31-2.64-2.08-3.92-1.22-2.04-2.46-4.07-3.7-6.1-2.49-4.05-5.03-8.08-7.57-12.1-2.52-3.98-5.05-7.94-7.57-11.92-2.37-3.73-4.47-7.69-7.14-11.21-4.3-5.68-9.93-10.62-16.8-12.87-7.26-2.37-15-.83-21.3,3.31-3.75,2.46-7.02,5.67-10.29,8.72-3.23,3.03-6.38,6.14-9.43,9.35-5.44,5.69-10.58,11.66-15.57,17.74-9.76,11.89-19.13,24.07-29.87,35.12-6.48,6.67-13.5,12.75-20.3,19.09-6.98,6.51-13.89,13.1-20.76,19.72-13.61,13.12-27.09,26.38-40.83,39.38-3.42,3.24-6.86,6.46-10.31,9.66-3.48,3.22-6.95,6.36-10.11,9.89-5.91,6.61-11.29,13.7-17.57,19.99-1.54,1.54-3.13,3.04-4.79,4.46-1.07.91-2.32,1.61-3.6,2.29-4.35-1.4-8.48-3.6-12.45-5.84-5.25-2.96-10.11-6.43-15.11-9.79-10.23-6.86-20.77-13.23-31.26-19.68-10.5-6.46-20.63-13.43-30.85-20.33-5.12-3.46-10.27-6.87-15.51-10.17-5.23-3.29-10.61-6.32-15.93-9.47-10.58-6.26-20.96-12.86-31.68-18.89-8.93-5.02-19.29-10.44-29.88-8.25-4.78.99-8.95,3.76-11.66,7.82-2.53,3.8-3.64,8.49-3.72,13.02-.05,2.48.27,4.98.38,7.46.14,3.15.3,6.3.45,9.45.31,6.29.69,12.58,1.02,18.87,1.3,25.17-.36,50.39.98,75.56.68,12.77,1.79,25.51,2.65,38.27.85,12.58.99,25.21,1.34,37.81.35,12.59.74,25.18,1.55,37.75.2,3.08.2,6.31.77,9.35.47,2.5,2.01,4.39,2.83,6.71,1.54,4.36,4.02,8.27,6.92,11.84,6.27,7.71,14.59,13.9,23.31,18.58,2.14,1.15,4.41,2.05,6.54,3.21,2.45,1.34,4.94,2.59,7.46,3.77,5.14,2.39,10.42,4.49,15.78,6.32,20.65,7.07,42.32,10.43,63.79,13.91,10.06,1.63,20.07,3.31,30.2,4.49,12.3,1.43,24.65,2.44,36.99,3.51,12.66,1.1,25.25,2.53,37.85,4.18,12.5,1.64,25.01,3.28,37.56,4.51,12.62,1.24,25.3,1.96,37.96,2.7,12.85.75,25.71,1.36,38.57,1.85,25.68.97,51.37,1.44,77.07,1.39,25.6-.04,51.28-.22,76.82-2.12,12.44-.93,24.87-2.04,37.3-3.07,12.57-1.04,25.15-1.74,37.72-2.63,11.82-.84,23.55-2.73,35.16-5.05,6.04-1.21,12.06-2.53,18.07-3.89,5.09-1.15,10.22-2.13,15.3-3.32,21.64-5.05,42.73-12.2,63.36-20.41,10.38-4.13,20.94-8.28,30.59-13.97,4.42-2.61,8.67-5.61,12.35-9.2,1.76-1.71,3.36-3.57,4.82-5.55,1.01-1.37,1.63-2.94,2.25-4.52,4.21-10.71,5.69-22,5.62-33.46-.06-10.85-.99-21.66-.6-32.51.2-5.55,1.07-10.55,1.89-16.04ZM2929.95,1212.62c0,1.76.02,3.51.05,5.27-23.35-9.22-48.32-13.46-73.03-17.26-13.38-2.06-26.73-4.32-40.11-6.41-6.74-1.05-13.5-2.01-20.28-2.76-6.11-.67-12.25-1.05-18.38-1.58-22.18-1.92-44.39-3.49-66.61-4.9-13.22-.84-26.44-1.51-39.66-2.35-3.29-.21-5.5-.59-8.73-.87-6.71-.58-13.43-1.08-20.15-1.5-21.78-1.37-43.62-1.94-65.44-1.45-12.7.29-25.4.92-38.05,2.15-3.95.39-7.9.87-11.84,1.34-13.19,1.58-26.41,2.58-39.68,3.23-13.68.67-27.37,1.07-41.05,1.77-12.63.65-25.24,1.74-37.79,3.24-23.62,2.82-47.01,7.12-70.47,11-13.32,2.2-26.64,4.34-39.98,6.35-13.2,1.99-26.41,4.08-39.41,7.17-5.48,1.3-10.91,2.8-16.27,4.53-.99-24.23-1.17-48.5-3.21-72.67-.53-6.29-1.17-12.56-1.51-18.86-.34-6.31-.51-12.63-.59-18.94-.16-12.51.04-25.02-.02-37.52-.06-13.21-.7-26.37-1.4-39.55,11.71,6.85,23.32,13.88,34.88,20.97,3.08,1.89,6.17,3.75,9.13,5.81,3.45,2.4,6.91,4.8,10.38,7.18,7.18,4.93,14.42,9.79,21.75,14.5,7.17,4.6,14.56,8.82,21.79,13.32,6.84,4.25,13.38,8.96,20.06,13.44,6.24,4.19,12.62,8.19,19.38,11.46,3.3,1.6,6.69,3.03,10.16,4.24,3.6,1.25,7.53,2.64,11.37,2.8,13.35.57,25.21-5.13,34.99-13.86,10.52-9.39,18.43-21.21,28.35-31.17,2.8-2.82,5.9-5.23,8.88-7.85,3.29-2.9,6.55-5.84,9.77-8.82,6.27-5.79,12.43-11.71,18.53-17.68,6.11-5.97,12.17-11.99,18.26-17.98,6.19-6.09,12.69-11.87,19.08-17.75,12.39-11.41,24.45-23.06,35.59-35.7,9.76-11.08,18.41-23.13,28.41-34,2.22-2.42,4.54-4.75,6.9-7.03,6.95,10.37,12.85,21.37,19.47,31.95,3.52,5.64,7.29,11.12,11.31,16.42,2.39,3.15,4.85,6.14,7.61,8.98,2.75,2.83,5.56,5.6,8.39,8.35,5.48,5.33,11.03,10.6,16.33,16.11,5.43,5.65,10.48,11.65,15.54,17.63,10.18,12.03,20.2,24.2,30.81,35.85,5.21,5.72,10.51,11.28,15.41,17.27,2.49,3.05,4.95,6.12,7.47,9.15,2.09,2.52,4.14,5.23,6.59,7.42,8.52,7.59,21.7,9.34,32.16,5.07,6.56-2.67,12.64-6.82,18.28-11.05,5.74-4.3,11.16-9,16.62-13.64,10.44-8.89,21.34-17.3,32.19-25.68,9.18-7.09,18.53-13.94,28.05-20.55,5.94-4.13,11.86-8.36,18.03-12.15,6.92-4.25,13.85-8.48,20.86-12.57,2.65-1.55,5.33-3.06,8-4.56,2.94,14.26,4.2,28.8,7.05,43.07.68,3.43,1.49,6.79,2.5,10.14.82,2.7,1.55,5.42,2.21,8.16,1.37,5.73,2.42,11.53,3.23,17.37,1.82,13.01,2.5,26.16,2.91,39.28.23,7.36.35,14.71.44,22.07.07,6.12-.47,12.03-1.31,18.09-2.14,15.39-4.83,30.94-4.2,46.54ZM2251.41,1247.89c2.79-.94,5.6-1.81,8.43-2.62,6.06-1.73,12.2-3.17,18.37-4.41,12.09-2.43,24.35-3.87,36.51-5.91,27.16-4.55,54.23-9.7,81.47-13.78,12.07-1.81,24.19-3.31,36.36-4.31,14.67-1.21,29.38-1.67,44.08-2.2,14.11-.51,28.22-1.08,42.28-2.43,7.58-.73,15.13-1.82,22.73-2.43,8.08-.65,16.18-.35,24.27-.02,21.46.88,42.91,2.14,64.37,2.91,6.82.24,13.66.37,20.47.81,11.1.71,22.15,2.05,33.27,2.66,7.45.41,14.91.43,22.36.8,7.16.36,14.31.74,21.46,1.16,12.73.74,25.46,1.59,38.18,2.6,10.3.82,20.63,1.62,30.89,2.91,7.33.92,14.64,2.38,21.95,3.52,7.19,1.12,14.38,2.21,21.57,3.34,14.52,2.29,29.02,4.73,43.39,7.81,10.55,2.27,21.11,4.91,31.19,8.82,4.53,1.76,9.09,3.84,13.05,6.72-7.85,6.26-17.44,9.63-26.7,13.28-12.05,4.76-24.11,9.25-36.55,12.92-12.52,3.69-25.21,6.79-37.96,9.59-6.35,1.39-12.72,2.71-19.09,3.99-3.02.61-6.05,1.2-9.07,1.79-2.14.42-4.28.55-6.45.73-22.01,1.83-44.01,3.71-66.02,5.49-10.25.83-20.51,1.65-30.77,2.4-12.59.92-25.28.95-37.9,1.2-23.48.47-46.96.62-70.44.23-20.18-.34-40.38-1.06-60.55-2.02-20.83-.99-41.61-2.84-62.34-5.14-12.89-1.43-25.74-3.16-38.62-4.71-6.74-.81-13.56-1.19-20.33-1.75-6.71-.55-13.42-1.11-20.12-1.75-13.07-1.24-26.04-2.92-38.98-5.08-9.93-1.66-19.89-3.13-29.79-4.97-12.83-2.38-25.56-5.14-37.68-10.09-9.21-3.76-18.44-8.32-26.53-14.16-.98-.71-1.94-1.44-2.81-2.28-.63-.6-1.19-1.27-1.74-1.94-.5-.6-1.05-1.19-1.51-1.83,1.73-.71,3.56-1.27,5.32-1.86Z"/>
    <g>
      <path class="uuid-f492b386-51fe-4593-b4bc-fe6b7b01dae8" d="M4786.38,769.62c-.09-.08-.2-.15-.32-.22-.13-.08-.26-.14-.38-.18-4.41-2.24-9.42-2.55-14-.56-4.68,2.03-8.81,5.59-12.59,8.95-8.42,7.49-16.5,15.39-24.63,23.2-16.63,15.97-32.88,32.37-48.07,49.72-14.97,17.1-28.28,35.7-40.99,54.52-12.69,18.79-25.13,37.94-35.77,57.99-10.77,20.31-18.93,41.86-27.64,63.09-.35.84-.7,1.68-1.05,2.52-2.16-14.13-3.81-28.32-5.82-42.47-2.25-15.91-4.99-31.76-7.11-47.69-2.13-16.04-2.98-32.21-4.79-48.29-1.79-15.83-4.62-31.5-8.25-47.01-3.65-15.62-7.93-31.07-10.83-46.86-2.9-15.84-5.3-31.77-8.31-47.6-6.05-31.85-13.73-63.38-20.96-94.97-3.61-15.76-7.25-31.52-10.98-47.25-.96-4.02-1.92-8.05-2.89-12.07-.86-3.55-1.41-7.24-2.52-10.72-1.9-5.95-7.32-10.26-13.48-10.98-5.73-.67-11.41,2-14.42,6.95-1.86,3.07-2.47,6.6-3.08,10.08-.67,3.84-1.31,7.68-2,11.51-2.87,15.93-6.05,31.79-9.58,47.59-7.01,31.34-14.58,62.53-19.86,94.23-2.62,15.72-4.85,31.51-6.59,47.36-1.76,16.14-3.23,32.3-5.14,48.42-3.8,32.17-8.46,64.25-11.63,96.49-1.6,16.22-2.62,32.49-3.84,48.74-1.22,16.28-2.49,32.55-3.8,48.82-.47,5.8-.95,11.6-1.42,17.4-9.44-18.56-17.46-37.72-25.63-56.88-4.46-10.45-9.04-20.86-14.1-31.04-5.03-10.1-10.74-19.82-16.55-29.48-11.4-18.94-23.81-37.31-37.8-54.45-7.02-8.6-14.49-16.77-22.35-24.6-7.71-7.68-15.48-15.37-23.78-22.41-7.85-6.66-16.4-13.16-26.02-17.03-8.91-3.59-19.7-3.9-26.86,3.41-7.32,7.48-5.73,18.4-2.11,27.25,2.08,5.09,4.39,10.05,6.29,15.21,1.95,5.3,3.85,10.62,5.73,15.95,7.68,21.75,15.14,43.57,23.01,65.25,7.8,21.49,16.48,42.71,23.14,64.59,6.6,21.68,11.03,43.9,14.02,66.35,3.02,22.67,4.62,45.49,5.92,68.32,1.31,23.24,2.28,46.49,3.45,69.74,1.18,23.28,2.53,46.55,3.49,69.85.48,11.64.86,23.29,1.09,34.94.12,5.73.19,11.46.23,17.19.02,2.78-.28,5.76.06,8.52.31,2.52,2.49,3,4.63,3.14,2.19.14,4.85.33,5.56-2.35.34-1.28.37-2.75.54-4.07.19-1.48.38-2.97.56-4.45.71-5.75,1.36-11.51,1.94-17.27,1.17-11.43,2.1-22.89,2.86-34.36,1.53-23.15,2.3-46.33,2.76-69.52.46-23.11.89-46.22.27-69.33-.61-22.94-2.13-45.87-4.99-68.65-2.84-22.65-6.88-45.19-12.99-67.2-6.1-21.99-14.21-43.4-22.24-64.75-8.08-21.51-15.25-43.34-22.85-65.02-3.08-8.78-6.23-17.54-9.44-26.28,8.36,6.65,15.92,14.3,23.54,21.77,9.13,8.95,17.63,18.41,25.51,28.48,15.55,19.87,29.2,41.38,41.29,63.51,6.31,11.55,11.89,23.4,16.99,35.53,5.14,12.21,10.18,24.47,15.51,36.6,5.28,12.01,10.91,23.86,17.05,35.46,3.02,5.7,6.13,11.35,9.37,16.92,1.64,2.82,3.34,5.6,4.98,8.42,1.5,2.58,2.96,5.19,4.94,7.44,3.43,3.88,8.49,6.6,13.78,5.99,4.94-.57,9.32-3.54,12.06-7.63,3.25-4.84,3.71-10.91,4.1-16.55.45-6.54,1.14-13.06,1.66-19.59,2.16-26.97,4.18-53.95,6.19-80.93,2-26.88,4.27-53.72,7.62-80.47,3.34-26.63,7.07-53.21,9.82-79.91,1.39-13.45,2.68-26.91,4.32-40.34,1.62-13.31,3.62-26.57,5.91-39.79,4.54-26.28,10.38-52.27,16.34-78.25.87-3.79,1.71-7.59,2.54-11.39,5.31,23.08,10.62,46.17,15.53,69.34,2.71,12.77,5.27,25.57,7.52,38.44,2.24,12.82,4.25,25.67,6.57,38.48,2.31,12.78,5.14,25.41,8.27,38,3.1,12.45,5.82,24.93,7.69,37.64,1.92,12.98,3.06,26.05,4.18,39.12,1.11,12.95,2.59,25.83,4.37,38.71,1.8,12.94,3.79,25.85,5.67,38.78,1.85,12.75,3.3,25.55,5.26,38.28,1.95,12.73,4.35,25.41,7.46,37.91.67,2.67,1.47,5.36,2.66,7.84,1.15,2.38,2.85,4.15,4.92,5.75,4.22,3.27,9.57,5.32,14.91,3.9,5.12-1.35,8.94-5.35,11.95-9.51,3.52-4.88,5.97-10.41,8.33-15.92,4.97-11.59,9.51-23.34,14.17-35.05,9.11-22.89,18.79-45.56,31.52-66.71,12.98-21.57,26.46-42.88,41.39-63.17,7.54-10.24,15.46-20.19,23.72-29.85,4.1-4.79,8.48-9.32,12.83-13.88,4.43-4.65,8.81-9.34,13.23-13.99,2.59-2.72,5.2-5.41,7.81-8.11-4.52,13.07-8.82,26.22-12.93,39.43-2.39,7.69-5.12,15.25-7.76,22.84-2.67,7.67-5.07,15.44-7.31,23.25-4.51,15.69-8.39,31.56-11.93,47.49-3.57,16.1-7.27,32.17-10.8,48.28-3.5,16-6.6,32.1-8.39,48.39-1.79,16.35-2.83,32.76-4.94,49.08-2.11,16.39-4.67,32.71-6.73,49.1-2.04,16.31-3.21,32.72-4.56,49.1-1.36,16.44-2.54,32.89-3.92,49.33-1.38,16.5-2.07,33.05-3.29,49.56-.25,3.38-.54,6.76-.86,10.13-7.59-1.19-15.07-2.95-22.56-4.6-8.18-1.81-16.42-3.42-24.65-4.95-16.43-3.06-32.94-5.18-49.58-6.67-16.77-1.51-33.58-2.62-50.42-2.73-16.79-.11-33.62.29-50.41.62-8.4.17-16.8.42-25.2.83-8.35.41-16.66,1.28-25,1.7-8.45.42-16.96-.03-25.41-.21-8.36-.18-16.75-.24-25.09.44-8.02.65-16.04,1.95-23.7,4.48-6.75,2.23-13.8,5.24-19.28,9.88-5.25,4.45-8.31,11.33-7.46,18.24.87,7.09,5.84,11.86,11.51,15.63,6.3,4.19,13.3,6.94,20.41,9.4,7.54,2.61,15.03,5.35,22.6,7.87,15.54,5.17,31.33,9.62,47.28,13.35,32.36,7.56,65.45,10.71,98.61,11.87,8.36.29,16.73.35,25.1.3,8.29-.06,16.61-.27,24.86-1.21,15.53-1.77,30.63-6.02,45.18-11.64,7.4-2.86,14.63-6.11,21.85-9.38,1.44-.65,2.63-1.51,2.7-3.24.03-.72-.22-1.35-.45-2.01-.36-1.01-.62-2.2-1.17-3.13-.77-1.29-2.19-1.91-3.65-1.65-2.02.37-4.02,1.03-6,1.55-15.84,4.13-31.88,7.98-48.27,9.05-16.89,1.1-33.8-.61-50.56-2.58-16.7-1.96-33.37-4.16-49.96-6.94-16.4-2.74-32.73-5.94-48.91-9.75-8.05-1.89-16.08-3.92-24.07-6.09-7.97-2.16-15.76-4.84-23.64-7.33-5.55-1.75-11.12-3.47-16.62-5.39,5.59-.85,11.24-1.21,16.9-1.25,7.66-.06,15.31.69,22.97.8,7.67.11,15.35-.03,23.01-.39,7.67-.36,15.33-1.34,23-1.44,30.91-.42,61.93-1.69,92.82.05,15.4.87,30.78,2.51,46.08,4.45,15.21,1.93,30.21,4.86,45.19,8.05,7.65,1.63,15.29,3.44,23,4.82,3.58.64,7.18,1.12,10.79,1.49,3.59.37,7.23.69,10.83.22,5.67-.74,10.85-3.5,14.14-8.25,3.76-5.4,4.17-12.27,4.6-18.62,2.07-30.54,4.05-61.09,6.36-91.61,2.33-30.84,4.76-61.67,9.1-92.3,2.15-15.19,4.17-30.36,5.51-45.64,1.36-15.46,2.52-30.94,4.86-46.29,2.3-15.07,6.06-29.8,9.32-44.67,3.32-15.14,6.5-30.31,9.88-45.43,3.34-14.93,7.17-29.7,11.74-44.3,4.54-14.51,9.63-28.85,14.19-43.35,4.58-14.57,8.72-29.29,14.12-43.59,2.65-7.02,5.32-14.07,8.3-20.96,2.8-6.45,6.16-13.12,7.14-20.16.89-6.39-1.75-12.34-7.12-15.86Z"/>
      <path class="uuid-f492b386-51fe-4593-b4bc-fe6b7b01dae8" d="M4220.74,800.27c6.92-8.4,8.2-20.59,3.03-30.21-5.04-9.38-15.86-13.34-26.03-11.66-10.08,1.66-17.59,10.23-19.07,20.16-1.54,10.31,2.46,21.59,12.02,26.65,9.69,5.12,22.65,3.33,30.05-4.95Z"/>
      <path class="uuid-f492b386-51fe-4593-b4bc-fe6b7b01dae8" d="M4466.06,549.52c8.39,7.25,22.08,7.99,31.02,1.25,8.7-6.55,11.57-18.83,8.27-28.96-1.58-4.84-4.48-9.15-8.63-12.14-3.85-2.77-8.61-4.18-13.33-4.37-9.63-.39-18.74,4.59-22.8,13.47-4.61,10.1-2.96,23.12,5.46,30.75Z"/>
      <path class="uuid-f492b386-51fe-4593-b4bc-fe6b7b01dae8" d="M4831.8,740.56c-.87-5.36-3.34-10.56-7.36-14.28-3.98-3.68-9.17-5.6-14.52-6.03-5.45-.45-11.25.79-15.82,3.84-4.53,3.02-7.7,7.64-9.32,12.8-2.94,9.4-.7,20.92,6.88,27.55,7.23,6.33,18.17,7.52,26.84,3.63,10.48-4.71,14.88-16.68,13.3-27.52Z"/>
    </g>
    <g>
      <path class="uuid-f492b386-51fe-4593-b4bc-fe6b7b01dae8" d="M2010.9,658.94c-.43-2.76-2.23-5.55-4-7.65-1.92-2.28-4.41-4.15-7.13-5.37-5.88-2.64-12.83-2.21-18.23,1.39-2.81,1.88-4.97,4.45-6.91,7.18-2.29,3.22-4.44,6.55-6.54,9.89-4.16,6.62-8.12,13.36-12.04,20.12-7.96,13.71-15.79,27.51-23.93,41.12-8.04,13.44-16.27,26.78-24.62,40.03-16.85,26.74-34.2,53.16-51.61,79.54-17.56,26.61-35.17,53.19-52.38,80.03-8.41,13.11-16.71,26.29-24.87,39.56-4.14,6.73-8.31,13.45-12.22,20.32-3.82,6.69-7.35,13.54-10.76,20.45-.86,1.74-1.69,3.49-2.53,5.24-3.99-28.49-9.15-56.83-14.36-85.11-5.61-30.5-11.58-60.94-17.56-91.37-5.96-30.34-11.95-60.68-17.62-91.08-2.83-15.15-5.38-30.35-8.72-45.4-3.26-14.7-6.26-29.47-10.08-44.04-1.79-6.84-3.75-13.65-5.7-20.44-1.87-6.52-3.95-13-6.82-19.16-2.57-5.51-5.79-11.27-10.52-15.23-4.99-4.17-11.49-5.94-17.93-5.04-6.08.85-11.61,4.12-15.26,9.06-1.95,2.63-3.17,5.67-4.41,8.68-1.46,3.53-3.02,7.02-4.51,10.53-5.92,13.97-11.52,28.08-16.72,42.34-10.23,28.07-18.92,56.71-25.72,85.8-1.73,7.4-3.12,14.87-4.75,22.29-1.63,7.44-3.53,14.83-5.43,22.2-3.8,14.77-7.9,29.45-12.12,44.11-8.49,29.48-17.46,58.83-25.46,88.45-7.9,29.25-14.85,58.8-19.4,88.77-.89,5.85-1.68,11.71-2.48,17.58-14.65-23.52-28.35-47.61-42.08-71.68-14.51-25.44-29.11-50.86-45.05-75.43-7.81-12.04-15.95-23.88-24.53-35.39-8.53-11.43-17.9-22.04-27.54-32.54-19.57-21.32-39.86-41.99-59.07-63.64-4.87-5.48-9.94-10.76-14.69-16.35-4.59-5.41-9.11-10.89-13.73-16.27-8.75-10.18-17.95-20.1-28.66-28.26-9.72-7.41-21.74-13.34-34.27-10.91-5.86,1.14-10.78,4.46-14.34,9.21-3.61,4.8-5.23,10.65-5.64,16.58-.49,7.13,1.04,14.1,2.18,21.1,1.2,7.34,2.67,14.64,4.25,21.91,3.14,14.48,6.58,28.89,10.03,43.29,6.9,28.85,13.86,57.69,20.67,86.56,6.75,28.62,12.6,57.43,18.41,86.25,5.84,28.94,11.74,57.85,18.56,86.57,6.85,28.88,14.19,57.64,20.84,86.57,6.6,28.76,12.39,57.66,17.71,86.67,5.31,28.95,10.51,57.95,17.44,86.58,1.73,7.15,3.57,14.27,5.53,21.36.63,2.27,1.06,5.77,4.16,5.65,2.69-.11,3.53-2.56,3.22-4.83-2.04-14.73-3.66-29.51-5.02-44.32-2.71-29.53-4.46-59.13-6.94-88.68-2.48-29.54-6.1-58.91-10.87-88.17-4.74-29.08-10.28-58.01-16.06-86.89-5.8-29-11.67-57.97-17.1-87.04-5.43-29.06-11.5-57.97-18-86.8-6.51-28.85-13.32-57.63-19.77-86.5-2.68-12.01-5.28-24.03-7.79-36.08,9.58,9.23,18.29,19.31,26.97,29.4,10.13,11.78,20.42,23.42,30.87,34.92,10.7,11.78,21.52,23.45,32.36,35.09,10.26,11.02,20.8,21.83,30.27,33.55,18.87,23.35,34.25,49.46,49.29,75.37,7.84,13.51,15.68,27.01,23.35,40.61,7.73,13.69,15.34,27.44,23.32,40.99,7.82,13.28,16.12,26.23,24.47,39.17,4.09,6.33,7.95,12.84,12.25,19.03,2.02,2.91,4.16,5.74,6.51,8.39,2.25,2.53,4.76,5.43,7.89,6.87,5.76,2.64,12.49,3.15,18.15,0,4.84-2.7,8.27-7.45,10.64-12.35,3.02-6.24,4.7-13.06,5.7-19.9.54-3.69.9-7.4,1.51-11.09.65-3.91,1.25-7.82,1.86-11.73,2.43-15.62,4.95-31.24,8.09-46.73,3.11-15.32,6.8-30.52,10.84-45.63,8.12-30.41,17.63-60.43,26.64-90.58,4.54-15.18,8.92-30.4,12.84-45.75,3.89-15.23,7.28-30.58,10.79-45.9,3.49-15.22,6.95-30.48,11.11-45.54,4.14-14.99,9.37-29.66,14.88-44.2,2.07-5.47,4.2-10.91,6.34-16.35,3.09,11.94,5.69,24,8.38,36.03,3.05,13.63,5.94,27.26,8.47,41,5.14,28,10.54,55.95,15.99,83.9,5.45,27.94,10.94,55.88,16.28,83.84,5.32,27.86,10.49,55.74,15.29,83.69,2.37,13.81,4.68,27.62,6.66,41.49.99,6.96,1.86,13.94,2.8,20.91.46,3.41.93,6.81,1.39,10.22.42,3.11.85,6.25,1.81,9.25,1.69,5.3,4.82,10.38,9.54,13.47,4.61,3.02,10.69,3.92,15.96,2.28,10.75-3.35,16.63-15.12,21.01-24.57,5.76-12.44,11.56-24.81,17.94-36.96,3.24-6.16,6.46-12.33,9.88-18.39,3.4-6.02,7.1-11.88,10.76-17.76,14.8-23.77,30.27-47.11,45.82-70.39,15.68-23.49,31.44-46.92,46.69-70.69,7.59-11.83,15.44-23.49,23.03-35.32,7.51-11.7,14.79-23.54,21.97-35.44,1.71-2.84,3.4-5.69,5.09-8.54-1.29,6.02-2.56,12.05-3.79,18.08-1.91,9.42-3.86,18.86-5.27,28.36-1.41,9.53-2.4,19.13-3.62,28.69-1.23,9.64-2.52,19.28-3.89,28.9-2.72,19.12-5.71,38.2-8.84,57.25-3.13,19.06-6.51,38.08-9.4,57.17-2.91,19.2-5.68,38.41-8.86,57.57-3.15,19-6.49,37.97-10,56.91-3.51,18.94-7.24,37.83-11.03,56.72-3.81,18.96-7.53,37.93-10.8,56.98-3.25,18.95-6.06,37.97-8.89,56.98-2.82,18.93-7.05,37.61-11.59,56.19-1.03,4.2-2.09,8.39-3.17,12.58-34.87-.46-69.74.25-104.61.61-4.33.04-8.66.08-12.99.11-2.15.01-4.3.09-6.44-.08-2.2-.17-4.42-.62-6.63-.6-1.81.01-3.43.75-5.22.74-2.26-.02-4.52,0-6.78-.01-4.33-.02-8.66-.05-12.99-.1-17.6-.2-35.19-.72-52.76-1.7-17.56-.98-35.1-2.15-52.68-2.55-17.45-.39-34.91-.32-52.35.19-8.73.26-17.47.56-26.18,1.12-8.57.55-17.1,1.16-25.7,1.21-17.73.1-35.46.27-53.19.56-17.53.29-35.07.59-52.6.95-8.58.18-17.19.54-25.69,1.77-7.91,1.14-15.88,3.26-22.73,7.49-.86.53-1.7,1.1-2.53,1.69-.25.18-.61.53-.87.67-.24.13-.59.13-.87.21-1.24.37-1.99,1.3-2.33,2.43-6.18,5.91-11.4,14.71-8.62,23.47,2.55,8.03,10.33,12.77,17.7,15.78,9.6,3.92,19.85,5.86,30.07,7.32,10.72,1.53,21.5,2.62,32.29,3.62,21.89,2.04,43.85,3.29,65.82,4.15,21.99.86,43.99,1.25,66,1.55,22.1.3,44.2.5,66.3.96,22.03.47,44.04,1.56,66.08,1.73,21.95.16,43.91-.52,65.82-1.83,11.08-.66,22.15-1.45,33.25-1.72,10.89-.27,21.78.3,32.67-.37,10.85-.66,21.67-1.81,32.53-2.46,10.35-.62,20.8-.9,30.86-3.69,8.83-2.45,17.71-6.71,24.07-13.45,6.33-6.7,9.23-16.07,5.79-24.92-1.47-3.78-3.71-7.16-6.42-10.15,1.07-1.42,1.88-3.01,2.44-4.73.34-1.05.58-2.14.74-3.24.16-1.04.59-1.91.47-3.02-.02-.23-.04-.25-.06-.22t0,0c.03-.33.12-.66.18-.98.11-.59.22-1.18.33-1.77.29-1.55.58-3.11.87-4.66.53-2.83,1.06-5.66,1.59-8.49,2.15-11.5,4.3-23.01,6.45-34.51,1.07-5.74,2.19-11.47,3.2-17.21.99-5.63,1.91-11.24,3.64-16.7,3.52-11.11,6.77-22.33,9.64-33.62,2.87-11.27,5.18-22.68,6.54-34.23.69-5.81,1.13-11.65,1.27-17.5.07-2.88-.06-5.74-.09-8.62-.03-2.8.75-5.62,1.27-8.37,1.07-5.71,2.15-11.38,3.69-16.99,1.54-5.61,3.11-11.21,4.63-16.83,3.05-11.27,5.97-22.57,8.62-33.94,5.33-22.84,9.34-45.96,12.99-69.12,3.69-23.4,7-46.86,11.14-70.19,2.06-11.61,4.24-23.2,6.17-34.84,1.93-11.6,3.55-23.25,5.12-34.91.77-5.73,1.52-11.4,2.58-17.08,1.05-5.6,2.09-11.2,3.14-16.81l6.47-34.59c4.34-23.23,8.69-46.47,13.03-69.7,2.11-11.3,4.22-22.6,6.55-33.86,1.19-5.77,2.34-11.55,3.56-17.31,1.15-5.41,2.56-10.75,3.77-16.14,1.18-5.27,1.8-10.57.94-15.94ZM1337.44,1372.59c4.35-6.49,12.48-8.83,19.8-9.98,8.11-1.28,16.43-1.3,24.61-1.39,8.95-.09,17.88-.28,26.82.07,8.82.34,17.64.68,26.47.98,35.79,1.19,71.6,2.43,107.41,2.56,17.87.06,35.71,1.37,53.54,2.4,17.82,1.03,35.66,1.99,53.51,2.39,17.87.4,35.74.16,53.59-.83,8.84-.49,17.68-1.11,26.51-1.83,8.95-.73,17.94-1.39,26.86-2.46,1.91-.23,3.82-.51,5.74-.56,2.24-.06,4.48.2,6.72.31,4.29.2,8.59.31,12.89.4,8.98.2,17.96.22,26.95.06,8.82-.15,17.65-.47,26.46-.96,4.44-.25,8.87-.53,13.29-.91,1.91-.17,3.82-.36,5.71.05,1.96.42,3.93,1.05,5.71,1.99,2.87,1.51,5.92,3.99,7.18,7.07,1.52,3.73-2.61,6.28-5.4,7.83-7.46,4.14-16.23,6.2-24.7,6.66-4.28.23-8.57.23-12.85.45-4.45.24-8.89.6-13.33.97-8.92.74-17.83,1.27-26.79,1.45-8.79.18-17.58.18-26.36.45-8.75.26-17.48.82-26.21,1.39-17.69,1.16-35.39,1.92-53.12,2.08-17.87.16-35.73-.27-53.59-.83-17.92-.56-35.85-.92-53.78-1.23-35.86-.61-71.72-.93-107.56-2.16-35.46-1.22-71.04-3.23-106.07-9.15-3.86-.65-7.71-1.46-11.42-2.71-1.78-.6-3.52-1.3-5.19-2.16-1.13-.57-2.51-1.22-3.59-2.05.07-.12.13-.24.21-.36Z"/>
      <path class="uuid-f492b386-51fe-4593-b4bc-fe6b7b01dae8" d="M1404.08,1310.59c6.54-4.46,9.34-12.62,7.67-20.28-1.84-8.42-9.42-14.26-17.99-14.26-7.23,0-14.11,4.32-16.94,10.99-2.99,7.03-1.61,15.92,3.92,21.34,6.09,5.97,16.23,6.79,23.34,2.21Z"/>
      <path class="uuid-f492b386-51fe-4593-b4bc-fe6b7b01dae8" d="M1493.55,1305.65c6.54-4.46,9.34-12.62,7.67-20.28-1.84-8.42-9.42-14.26-17.99-14.26-7.23,0-14.11,4.32-16.94,10.99-2.99,7.03-1.61,15.92,3.92,21.34,6.09,5.97,16.23,6.79,23.34,2.21Z"/>
      <path class="uuid-f492b386-51fe-4593-b4bc-fe6b7b01dae8" d="M1587.87,1305.17c6.54-4.46,9.34-12.62,7.67-20.28-1.84-8.42-9.42-14.26-17.99-14.26-7.23,0-14.11,4.32-16.94,10.99-2.99,7.03-1.61,15.92,3.92,21.34,6.09,5.97,16.23,6.79,23.34,2.2Z"/>
      <path class="uuid-f492b386-51fe-4593-b4bc-fe6b7b01dae8" d="M1685.78,1302.92c6.54-4.46,9.34-12.62,7.67-20.28-1.84-8.42-9.42-14.26-17.99-14.26-7.23,0-14.11,4.32-16.94,10.99-2.99,7.03-1.61,15.92,3.92,21.34,6.09,5.97,16.23,6.79,23.34,2.21Z"/>
      <path class="uuid-f492b386-51fe-4593-b4bc-fe6b7b01dae8" d="M1784.4,1317.61c6.54-4.46,9.34-12.62,7.67-20.28-1.84-8.42-9.42-14.26-17.99-14.26-7.23,0-14.11,4.32-16.94,10.99-2.99,7.03-1.61,15.92,3.92,21.34,6.09,5.97,16.23,6.79,23.34,2.21Z"/>
    </g>
    <g>
      <path class="uuid-f492b386-51fe-4593-b4bc-fe6b7b01dae8" d="M1043.13,916.09c-1.68-37-9.42-73.16-24.69-103.38-14.45-28.6-34.31-52.98-57.34-66.08-23.81-13.55-50.11-13.25-74.22-1.31-25.3,12.53-45.75,38.31-62.68,67.34-15.33,26.28-28.11,54.95-37.93,85.9-9.73-68.3-26.99-143.99-76.18-169.18-26.58-13.61-56.39-9.83-82.79,2.62-28.06,13.23-50.72,38.02-68.96,71-19.15,34.62-32.83,73.59-41.21,115.6-9.2-27.59-20.91-53.22-34.87-76.53-16.9-28.23-36.51-52.71-61.21-65.54-41.74-21.67-90.79-8.07-118.74,43.02-25.86,47.27-33.75,112.05-36.25,170.46-1.64,38.36-.06,76.52,2.23,114.74,2.57,42.82,6.2,85.51,10.85,127.97,4.64,42.3,9.74,84.93,16.96,126.5,1.2,6.88,3.59,9.86,8.47,10.79,7.01,1.34,14.37.41,21.44.41,15.33,0,30.66-.02,45.99-.03,61.98-.04,123.97-.08,185.95-.11,123.3-.08,246.6-.15,369.9-.23,15.32,0,30.67.31,45.99-.03,8.41-.18,21.89-3.28,26.74-14.81,1.36-3.23.78-4.92,1.02-8.59.36-5.45,1.69-11.11,2.49-16.47,1.64-10.99,3.25-21.98,4.82-32.99,3-21.1,5.86-42.24,8.57-63.43,10.75-84.2,18.77-168.97,24.19-254.21,1.34-21.1,2.26-42.23,1.45-63.41ZM731.79,1343.38c-105.97.06-211.94.13-317.91.19-28.78.02-57.64-.8-86.42.02-1.75-11.21-3.44-22.44-5.06-33.69,83.72-.3,167.43-.6,251.15-.9,87.53-.31,175.06-.63,262.58-.94,24.63-.09,49.26-.18,73.88-.26,11.98-.04,23.96-.09,35.94-.13,10.02-.04,20.27.81,30.28-.66-1.74,12.09-3.53,24.16-5.35,36.22-79.7.05-159.4.1-239.1.15ZM722.71,1282.92c-87.86.31-175.72.63-263.58.94-24.96.09-49.92.18-74.88.27-12.31.04-24.63.09-36.94.13-9.52.03-18.92-.42-28.27,1.53-10.19-75.99-16.47-152.36-20.79-229.44-2-38.89-.86-78.77,3.11-117.33,3.62-35.17,10.21-71.55,23.37-102.07,6.18-14.33,14.38-28.35,25.02-36.14,10.65-7.79,23.5-7.38,34.98-4.33,24.42,6.49,44.74,27.7,61.37,53.28,17.91,27.54,33.31,59.12,43.58,93.86,5.57,18.84,9.84,38.47,12.9,58.45,1.47,9.56,2.65,19.21,3.57,28.91.43,4.51.79,9.04,1.1,13.58.25,3.72-.14,8.32,1.45,11.48,4.8,9.55,18.44,3.57,24.06-.57,3.2-2.36,6.6-5.75,6.98-11.26.67-9.82-.52-20.39-.46-30.33.28-40.45,4.46-81.22,14.01-119.38,17.08-68.24,53.65-144.8,109.6-145.17,23.9-.16,45.41,15.64,59.85,42.71,12.9,24.19,19.99,53.63,25.5,82.7,7.54,39.82,12.99,80.58,14.7,121.82.42,10.05.72,20.18.57,30.24-.15,10.3-1.56,20.99-.92,31.27.66,10.66,8.64,11.65,14.66,10.39,6.29-1.31,15.61-5.39,17.33-15.5,1.43-8.41.81-18.21,1.01-26.85.24-10.36,1.17-20.74,2.2-31,3.92-38.8,11.85-76.93,24.33-111.87,12.13-33.94,28.65-65.21,48.28-90.98,8.7-11.41,18.95-21.64,30.52-25.86,11.9-4.34,24.51-1.5,35.86,4.58,22.96,12.29,42.74,38.5,55.62,67.98,13.49,30.89,19.13,66.5,18.96,102.7-.1,20.28-1.64,40.47-2.93,60.64-6.01,93.9-15.95,187.2-28.67,279.7-85.68.31-171.37.61-257.05.92Z"/>
      <path class="uuid-f492b386-51fe-4593-b4bc-fe6b7b01dae8" d="M410.73,891.76c-17.87-16.57-41.74-11.58-58.52,5.67-20.3,20.87-22.34,57.29-17.47,89.99,4.38,29.46,22.34,46.39,42.76,46.79,22.09.42,40.54-18.05,48.24-47.6,8.15-31.31,5.33-74.38-15.01-94.85ZM387.39,1007.74c-1.26-.84-3.31-1.04-4.54-1.74-3.01-1.73-5.75-4.25-8.12-7.43-5.54-7.44-7.68-17.83-8.78-28.29-1.13-10.78-2.01-22.51-1.05-33.36.77-8.65,3.39-23.47,9.15-28.36,5.38-4.56,14.24,9.04,16.85,14.66,3.61,7.78,5.46,17.05,6.34,26.23,1.87,19.48-.54,40.85-8.95,56.81-.28.52-.6.99-.9,1.48Z"/>
      <path class="uuid-f492b386-51fe-4593-b4bc-fe6b7b01dae8" d="M648.94,871.36c-.2.05-.38.09-.55.14-20.93,5.97-35.75,32.41-39.15,61.62-3.63,31.16,4.4,67.25,27.06,77.77,18.83,8.75,43.04-.34,56.37-21.32,13.5-21.23,19.66-57.04,11.18-83.88-9.58-30.29-33.53-40.02-54.91-34.33ZM666.35,982.37c-3.98,6.79-7.36,6.58-13.15.46-5.9-6.24-9.6-16.26-11.43-26.23-1.92-10.44-1.74-21.15-.33-31.7,1.21-9.06,3.83-23.81,9.8-29.37.12,0,.28,0,.51,0,2,.37,3.81.94,5.69,2.09,2.82,1.73,5.54,4.24,7.83,7.16,4.81,6.13,7.81,14.45,9.19,23.38,2.86,18.5-.55,38.85-8.11,54.22Z"/>
      <path class="uuid-f492b386-51fe-4593-b4bc-fe6b7b01dae8" d="M952.38,894.42c-14.27-8.93-29.93-8.42-44.52-1.12-4.97,2.48-15.67,6.98-17.67,15.03-1.17,4.68.59,7.2,3.24,8.47-6.68,10.69-10.53,26.88-11.13,39.75-.84,18.05,5.03,36.14,16.8,43.96,11.03,7.33,24.17,4.64,34.46-3.93,6.53-5.44,11.94-13.19,17.12-20.97,5.16-7.74,10.13-16.05,13.48-25.69,3.33-9.6,5.56-21.2,3.77-31.88-1.88-11.19-8.65-18.83-15.54-23.62ZM925.98,968.41c-1.61,2.54-3.26,4.96-4.97,7.29-8.88-12.87-7.95-34.3-2.27-49.92,1.21-3.32,4.58-8.12,5.59-12.63,4.13,2.63,8.42,6.88,10.62,12.6,5.5,14.32-2.49,32.01-8.96,42.65Z"/>
    </g>
  </g>
</svg>